<?xml version="1.0" standalone="no"?>
<!DOCTYPE svg PUBLIC "-//W3C//DTD SVG 20010904//EN"
 "http://www.w3.org/TR/2001/REC-SVG-20010904/DTD/svg10.dtd">
<svg version="1.0" xmlns="http://www.w3.org/2000/svg"
 width="520.000000pt" height="520.000000pt" viewBox="0 0 520.000000 520.000000"
 preserveAspectRatio="xMidYMid meet">
<metadata>
Created by potrace 1.11, written by Peter Selinger 2001-2013
</metadata>
<g transform="translate(0.000000,520.000000) scale(0.100000,-0.100000)"
fill="#000000" stroke="none">
<path d="M1079 3587 c-1 -1 -3 -41 -4 -89 -3 -99 -7 -95 110 -119 33 -7 65
-17 72 -23 6 -6 22 -47 36 -91 37 -118 89 -280 247 -770 138 -429 190 -591
252 -785 l30 -95 174 0 173 0 16 50 c18 60 19 63 96 330 58 206 64 227 73 262
3 10 41 144 86 298 83 286 93 327 115 480 25 165 43 246 46 202 1 -10 2 -20 4
-24 1 -5 5 -26 10 -48 37 -187 83 -373 135 -545 34 -113 82 -272 106 -355 51
-172 52 -173 129 -435 32 -107 62 -199 66 -204 4 -5 85 -9 180 -10 163 -1 172
0 180 19 5 11 94 299 198 640 292 955 329 1077 335 1082 3 3 47 15 98 27 l93
22 0 89 0 90 -367 2 c-203 1 -368 -2 -369 -5 -6 -47 -2 -165 6 -172 5 -4 64
-17 129 -29 66 -11 120 -22 122 -24 2 -1 -35 -144 -82 -317 -47 -173 -94 -349
-105 -390 -11 -41 -36 -133 -55 -204 -20 -72 -37 -137 -39 -145 -2 -9 -16 -68
-31 -131 -15 -63 -29 -117 -29 -120 -1 -3 -7 -32 -15 -65 l-13 -60 -13 50 c-7
28 -16 66 -19 85 -3 19 -7 42 -10 50 -2 8 -6 26 -9 40 -12 68 -49 221 -77 317
-16 60 -32 115 -34 123 -7 26 -154 543 -169 590 -7 25 -35 122 -61 215 -27 94
-52 175 -57 182 -7 8 -59 11 -185 10 l-176 -2 -13 -40 c-7 -22 -38 -132 -69
-245 -31 -113 -72 -259 -90 -325 -110 -393 -174 -629 -189 -695 -31 -144 -46
-215 -57 -272 -17 -87 -22 -81 -54 70 -3 12 -7 30 -9 40 -2 9 -7 28 -10 42
-49 213 -60 258 -111 435 -54 188 -204 734 -207 750 -2 11 2 20 7 20 6 0 65 9
133 20 l122 19 0 92 0 92 -425 0 c-234 0 -426 -1 -426 -1z"/>
</g>
</svg>
