<?xml version="1.0" standalone="no"?>
<!DOCTYPE svg PUBLIC "-//W3C//DTD SVG 20010904//EN"
 "http://www.w3.org/TR/2001/REC-SVG-20010904/DTD/svg10.dtd">
<svg version="1.0" xmlns="http://www.w3.org/2000/svg"
 width="520.000000pt" height="520.000000pt" viewBox="0 0 520.000000 520.000000"
 preserveAspectRatio="xMidYMid meet">
<metadata>
Created by potrace 1.11, written by Peter Selinger 2001-2013
</metadata>
<g transform="translate(0.000000,520.000000) scale(0.100000,-0.100000)"
fill="#000000" stroke="none">
<path d="M975 3833 c3 -10 15 -52 25 -93 11 -41 29 -111 40 -155 12 -44 23
-87 25 -95 2 -8 24 -93 50 -188 25 -94 48 -180 50 -190 2 -9 15 -60 29 -112
14 -52 50 -189 80 -305 31 -115 72 -271 92 -345 20 -74 38 -143 39 -152 2 -10
16 -62 30 -115 15 -54 28 -105 30 -113 2 -8 13 -50 25 -92 11 -43 23 -85 25
-95 2 -10 20 -79 40 -153 20 -74 38 -143 40 -154 3 -10 11 -43 20 -72 l16 -54
224 0 c244 0 229 -3 241 55 1 6 48 181 104 390 56 209 110 412 120 450 10 39
33 122 50 185 17 63 33 122 34 130 2 8 11 42 20 75 9 33 18 67 20 75 9 36 76
288 85 315 5 17 21 77 37 134 20 75 30 98 36 85 4 -11 42 -152 84 -314 42
-162 94 -362 116 -445 22 -82 43 -166 48 -185 4 -19 17 -69 28 -110 12 -41 34
-127 51 -190 50 -195 101 -391 128 -490 14 -52 28 -108 32 -125 l7 -30 224 0
224 0 13 45 c14 45 90 320 97 352 3 9 27 97 54 195 49 175 65 238 62 238 -1 0
3 13 9 28 10 27 186 657 272 977 11 41 32 116 46 165 14 50 29 104 33 120 4
17 28 105 54 197 25 91 46 169 46 172 0 4 -100 5 -222 4 l-221 -3 -28 -115
c-16 -63 -31 -124 -33 -135 -30 -127 -140 -580 -225 -925 -117 -477 -163 -666
-167 -690 -10 -49 -21 -39 -39 37 -10 43 -20 83 -21 88 -1 6 -20 80 -42 165
-23 85 -64 245 -92 355 -28 110 -69 268 -90 350 -79 307 -213 831 -218 853
l-4 22 -226 -2 -225 -3 -17 -65 c-10 -36 -41 -153 -69 -260 -28 -107 -60 -229
-71 -270 -11 -41 -47 -178 -80 -305 -34 -126 -76 -288 -95 -360 -19 -71 -66
-247 -104 -390 -38 -143 -71 -253 -75 -245 -7 20 -37 138 -42 170 -3 14 -7 33
-10 42 -3 9 -7 25 -9 35 -8 40 -162 695 -185 788 -14 56 -88 370 -94 397 -3
13 -29 123 -57 246 l-53 222 -224 0 c-209 0 -224 -1 -217 -17z"/>
</g>
</svg>
