<?xml version="1.0" standalone="no"?>
<!DOCTYPE svg PUBLIC "-//W3C//DTD SVG 20010904//EN"
 "http://www.w3.org/TR/2001/REC-SVG-20010904/DTD/svg10.dtd">
<svg version="1.0" xmlns="http://www.w3.org/2000/svg"
 width="260.000000pt" height="260.000000pt" viewBox="0 0 260.000000 260.000000"
 preserveAspectRatio="xMidYMid meet">
<metadata>
Created by potrace 1.11, written by Peter Selinger 2001-2013
</metadata>
<g transform="translate(0.000000,260.000000) scale(0.100000,-0.100000)"
fill="#000000" stroke="none">
<path d="M530 1651 c13 -42 81 -244 90 -266 4 -11 17 -47 29 -80 67 -198 104
-305 118 -343 l16 -43 126 3 125 3 70 228 c39 125 73 227 76 227 3 0 11 -19
18 -42 7 -24 40 -128 73 -231 l60 -188 126 3 126 3 33 95 c128 369 194 561
208 599 9 24 16 47 16 51 0 4 -57 7 -127 7 l-128 -1 -53 -190 c-29 -105 -59
-213 -66 -241 l-14 -50 -25 85 c-85 284 -107 360 -107 374 0 21 -24 24 -153
24 l-107 0 -15 -52 c-8 -28 -33 -116 -56 -196 -22 -80 -43 -152 -45 -160 -21
-90 -22 -89 -58 50 -13 52 -41 153 -60 224 -20 70 -36 129 -36 131 0 1 -60 2
-134 2 l-134 -1 8 -25z"/>
<path d="M1830 1178 c-70 -48 -91 -115 -60 -186 40 -88 165 -114 238 -48 104
93 41 256 -99 256 -31 0 -57 -7 -79 -22z"/>
</g>
</svg>
